rotated_Sprint_04500001_forces_filt50Hz.mot
version=1
nRows=52
nColumns=19
inDegrees=yes
endheader
time	R_ground_force_vx	R_ground_force_vy	R_ground_force_vz	R_ground_force_px	R_ground_force_py	R_ground_force_pz	R_ground_torque_x	R_ground_torque_y	R_ground_torque_z	L_ground_force_vx	L_ground_force_vy	L_ground_force_vz	L_ground_force_px	L_ground_force_py	L_ground_force_pz	L_ground_torque_x	L_ground_torque_y	L_ground_torque_z	
2.943000	  0.000000	  0.000000	  0.000000	  0.652020	  0.000000	 -0.486105	  0.000000	  0.000000	  0.000000	287.022517	2012.283637	 32.862927	  0.707859	  0.000000	 -0.328842	  0.000000	-12.023516	  0.000000
2.943500	  0.000000	  0.000000	  0.000000	  0.653148	  0.000000	 -0.484530	  0.000000	  0.000000	  0.000000	290.841623	1997.467375	 34.561221	  0.705913	  0.000000	 -0.328633	  0.000000	-13.978475	  0.000000
2.944000	  0.000000	  0.000000	  0.000000	  0.654275	  0.000000	 -0.482954	  0.000000	  0.000000	  0.000000	294.602083	1982.340552	 36.251064	  0.703926	  0.000000	 -0.328429	  0.000000	-15.904958	  0.000000
2.944500	  0.000000	  0.000000	  0.000000	  0.655403	  0.000000	 -0.481379	  0.000000	  0.000000	  0.000000	298.302779	1966.908902	 37.920623	  0.701897	  0.000000	 -0.328232	  0.000000	-17.792779	  0.000000
2.945000	  0.000000	  0.000000	  0.000000	  0.656531	  0.000000	 -0.479803	  0.000000	  0.000000	  0.000000	301.942620	1951.178684	 39.557271	  0.699826	  0.000000	 -0.328043	  0.000000	-19.631630	  0.000000
2.945500	  0.000000	  0.000000	  0.000000	  0.657721	  0.000000	 -0.478186	  0.000000	  0.000000	  0.000000	305.520567	1935.156590	 41.147674	  0.697714	  0.000000	 -0.327861	  0.000000	-21.411110	  0.000000
2.946000	  0.000000	  0.000000	  0.000000	  0.658912	  0.000000	 -0.476569	  0.000000	  0.000000	  0.000000	309.035654	1918.849654	 42.677892	  0.695558	  0.000000	 -0.327688	  0.000000	-23.120777	  0.000000
2.946500	  0.000000	  0.000000	  0.000000	  0.660102	  0.000000	 -0.474952	  0.000000	  0.000000	  0.000000	312.487016	1902.265139	 44.133505	  0.693360	  0.000000	 -0.327524	  0.000000	-24.750217	  0.000000
2.947000	  0.000000	  0.000000	  0.000000	  0.661292	  0.000000	 -0.473335	  0.000000	  0.000000	  0.000000	315.873909	1885.410422	 45.499748	  0.691119	  0.000000	 -0.327370	  0.000000	-26.289128	  0.000000
2.947500	  0.000000	  0.000000	  0.000000	  0.662482	  0.000000	 -0.471718	  0.000000	  0.000000	  0.000000	319.195722	1868.292887	 46.761646	  0.688835	  0.000000	 -0.327226	  0.000000	-27.727410	  0.000000
2.948000	  0.000000	  0.000000	  0.000000	  0.663673	  0.000000	 -0.470100	  0.000000	  0.000000	  0.000000	322.451970	1850.919862	 47.904139	  0.686508	  0.000000	 -0.327093	  0.000000	-29.055261	  0.000000
2.948500	  0.000000	  0.000000	  0.000000	  0.664863	  0.000000	 -0.468483	  0.000000	  0.000000	  0.000000	325.642288	1833.298581	 48.912189	  0.684136	  0.000000	 -0.326972	  0.000000	-30.263259	  0.000000
2.949000	  0.000000	  0.000000	  0.000000	  0.666053	  0.000000	 -0.466866	  0.000000	  0.000000	  0.000000	328.766402	1815.436205	 49.770871	  0.681720	  0.000000	 -0.326863	  0.000000	-31.342445	  0.000000
2.949500	  0.000000	  0.000000	  0.000000	  0.667244	  0.000000	 -0.465249	  0.000000	  0.000000	  0.000000	331.824119	1797.339892	 50.465447	  0.679259	  0.000000	 -0.326766	  0.000000	-32.284383	  0.000000
2.950000	  0.000000	  0.000000	  0.000000	  0.668434	  0.000000	 -0.463632	  0.000000	  0.000000	  0.000000	334.815299	1779.016887	 50.981430	  0.676753	  0.000000	 -0.326683	  0.000000	-33.081216	  0.000000
2.950500	  0.000000	  0.000000	  0.000000	  0.669717	  0.000000	 -0.461972	  0.000000	  0.000000	  0.000000	337.739865	1760.474646	 51.304648	  0.674199	  0.000000	 -0.326613	  0.000000	-33.725717	  0.000000
2.951000	  0.000000	  0.000000	  0.000000	  0.671000	  0.000000	 -0.460312	  0.000000	  0.000000	  0.000000	340.597804	1741.720930	 51.421316	  0.671598	  0.000000	 -0.326557	  0.000000	-34.211339	  0.000000
2.951500	  0.000000	  0.000000	  0.000000	  0.672284	  0.000000	 -0.458651	  0.000000	  0.000000	  0.000000	343.389202	1722.763888	 51.318117	  0.668948	  0.000000	 -0.326516	  0.000000	-34.532261	  0.000000
2.952000	  0.000000	  0.000000	  0.000000	  0.673567	  0.000000	 -0.456991	  0.000000	  0.000000	  0.000000	346.114267	1703.612078	 50.982310	  0.666248	  0.000000	 -0.326490	  0.000000	-34.683441	  0.000000
2.952500	  0.000000	  0.000000	  0.000000	  0.674850	  0.000000	 -0.455331	  0.000000	  0.000000	  0.000000	348.773368	1684.274455	 50.401855	  0.663498	  0.000000	 -0.326479	  0.000000	-34.660662	  0.000000
2.953000	  0.000000	  0.000000	  0.000000	  0.676133	  0.000000	 -0.453671	  0.000000	  0.000000	  0.000000	351.367053	1664.760332	 49.565552	  0.660696	  0.000000	 -0.326484	  0.000000	-34.460578	  0.000000
2.953500	  0.000000	  0.000000	  0.000000	  0.677416	  0.000000	 -0.452011	  0.000000	  0.000000	  0.000000	353.896078	1645.079347	 48.463202	  0.657841	  0.000000	 -0.326505	  0.000000	-34.080757	  0.000000
2.954000	  0.000000	  0.000000	  0.000000	  0.678700	  0.000000	 -0.450350	  0.000000	  0.000000	  0.000000	356.361430	1625.241454	 47.085763	  0.654932	  0.000000	 -0.326544	  0.000000	-33.519716	  0.000000
2.954500	  0.000000	  0.000000	  0.000000	  0.679983	  0.000000	 -0.448690	  0.000000	  0.000000	  0.000000	358.764351	1605.256945	 45.425513	  0.651968	  0.000000	 -0.326599	  0.000000	-32.776948	  0.000000
2.955000	  0.000000	  0.000000	  0.000000	  0.681266	  0.000000	 -0.447030	  0.000000	  0.000000	  0.000000	361.106354	1585.136473	 43.476195	  0.648949	  0.000000	 -0.326672	  0.000000	-31.852919	  0.000000
2.955500	  0.000000	  0.000000	  0.000000	  0.682627	  0.000000	 -0.445377	  0.000000	  0.000000	  0.000000	363.389233	1564.891070	 41.233152	  0.645873	  0.000000	 -0.326762	  0.000000	-30.749059	  0.000000
2.956000	  0.000000	  0.000000	  0.000000	  0.683989	  0.000000	 -0.443724	  0.000000	  0.000000	  0.000000	365.615057	1544.532127	 38.693434	  0.642740	  0.000000	 -0.326871	  0.000000	-29.467722	  0.000000
2.956500	  0.000000	  0.000000	  0.000000	  0.685350	  0.000000	 -0.442071	  0.000000	  0.000000	  0.000000	367.786141	1524.071340	 35.855888	  0.639549	  0.000000	 -0.326998	  0.000000	-28.012135	  0.000000
2.957000	  0.000000	  0.000000	  0.000000	  0.686711	  0.000000	 -0.440418	  0.000000	  0.000000	  0.000000	369.905001	1503.520623	 32.721230	  0.636299	  0.000000	 -0.327145	  0.000000	-26.386340	  0.000000
2.957500	  0.000000	  0.000000	  0.000000	  0.688072	  0.000000	 -0.438765	  0.000000	  0.000000	  0.000000	371.974278	1482.892030	 29.292098	  0.632990	  0.000000	 -0.327310	  0.000000	-24.595116	  0.000000
2.958000	  0.000000	  0.000000	  0.000000	  0.689434	  0.000000	 -0.437113	  0.000000	  0.000000	  0.000000	373.996641	1462.197681	 25.573097	  0.629622	  0.000000	 -0.327494	  0.000000	-22.643906	  0.000000
2.958500	  0.000000	  0.000000	  0.000000	  0.690795	  0.000000	 -0.435460	  0.000000	  0.000000	  0.000000	375.974666	1441.449740	 21.570818	  0.626193	  0.000000	 -0.327698	  0.000000	-20.538727	  0.000000
2.959000	  0.000000	  0.000000	  0.000000	  0.692156	  0.000000	 -0.433807	  0.000000	  0.000000	  0.000000	377.910711	1420.660405	 17.293849	  0.622705	  0.000000	 -0.327921	  0.000000	-18.286083	  0.000000
2.959500	  0.000000	  0.000000	  0.000000	  0.693518	  0.000000	 -0.432154	  0.000000	  0.000000	  0.000000	379.806789	1399.841910	 12.752754	  0.619157	  0.000000	 -0.328164	  0.000000	-15.892882	  0.000000
2.960000	  0.000000	  0.000000	  0.000000	  0.694879	  0.000000	 -0.430501	  0.000000	  0.000000	  0.000000	381.664458	1379.006519	  7.960039	  0.615549	  0.000000	 -0.328427	  0.000000	-13.366365	  0.000000
2.960500	  0.000000	  0.000000	  0.000000	  0.696330	  0.000000	 -0.428789	  0.000000	  0.000000	  0.000000	383.484737	1358.166485	  2.930092	  0.611883	  0.000000	 -0.328708	  0.000000	-10.714050	  0.000000
2.961000	  0.000000	  0.000000	  0.000000	  0.697780	  0.000000	 -0.427078	  0.000000	  0.000000	  0.000000	385.268035	1337.334001	 -2.320892	  0.608158	  0.000000	 -0.329008	  0.000000	 -7.943688	  0.000000
2.961500	  0.000000	  0.000000	  0.000000	  0.699231	  0.000000	 -0.425366	  0.000000	  0.000000	  0.000000	387.014104	1316.521127	 -7.775000	  0.604376	  0.000000	 -0.329327	  0.000000	 -5.063254	  0.000000
2.962000	  0.000000	  0.000000	  0.000000	  0.700682	  0.000000	 -0.423654	  0.000000	  0.000000	  0.000000	388.722001	1295.739725	-13.412705	  0.600538	  0.000000	 -0.329664	  0.000000	 -2.080941	  0.000000
2.962500	  0.000000	  0.000000	  0.000000	  0.702132	  0.000000	 -0.421942	  0.000000	  0.000000	  0.000000	390.390053	1275.001403	-19.212954	  0.596646	  0.000000	 -0.330017	  0.000000	  0.994808	  0.000000
2.963000	  0.000000	  0.000000	  0.000000	  0.703583	  0.000000	 -0.420231	  0.000000	  0.000000	  0.000000	392.015836	1254.317495	-25.153264	  0.592702	  0.000000	 -0.330388	  0.000000	  4.155247	  0.000000
2.963500	  0.000000	  0.000000	  0.000000	  0.705034	  0.000000	 -0.418519	  0.000000	  0.000000	  0.000000	393.596156	1233.699075	-31.209789	  0.588710	  0.000000	 -0.330774	  0.000000	  7.391250	  0.000000
2.964000	  0.000000	  0.000000	  0.000000	  0.706485	  0.000000	 -0.416807	  0.000000	  0.000000	  0.000000	395.127047	1213.156999	-37.357385	  0.584672	  0.000000	 -0.331175	  0.000000	 10.693203	  0.000000
2.964500	  0.000000	  0.000000	  0.000000	  0.707935	  0.000000	 -0.415096	  0.000000	  0.000000	  0.000000	396.603781	1192.701946	-43.569664	  0.580592	  0.000000	 -0.331590	  0.000000	 14.050893	  0.000000
2.965000	  0.000000	  0.000000	  0.000000	  0.709386	  0.000000	 -0.413384	  0.000000	  0.000000	  0.000000	398.020902	1172.344443	-49.819067	  0.576476	  0.000000	 -0.332017	  0.000000	 17.453403	  0.000000
2.965500	  0.000000	  0.000000	  0.000000	  0.710918	  0.000000	 -0.411689	  0.000000	  0.000000	  0.000000	399.372273	1152.094846	-56.076966	  0.572328	  0.000000	 -0.332456	  0.000000	 20.889019	  0.000000
2.966000	  0.000000	  0.000000	  0.000000	  0.712451	  0.000000	 -0.409994	  0.000000	  0.000000	  0.000000	400.651151	1131.963248	-62.313803	  0.568156	  0.000000	 -0.332904	  0.000000	 24.345175	  0.000000
2.966500	  0.000000	  0.000000	  0.000000	  0.713983	  0.000000	 -0.408299	  0.000000	  0.000000	  0.000000	401.850274	1111.959287	-68.499294	  0.563967	  0.000000	 -0.333359	  0.000000	 27.808435	  0.000000
2.967000	  0.000000	  0.000000	  0.000000	  0.715516	  0.000000	 -0.406604	  0.000000	  0.000000	  0.000000	402.961935	1092.091883	-74.602674	  0.559767	  0.000000	 -0.333820	  0.000000	 31.264534	  0.000000
2.967500	  0.000000	  0.000000	  0.000000	  0.717048	  0.000000	 -0.404909	  0.000000	  0.000000	  0.000000	403.978023	1072.368972	-80.592991	  0.555566	  0.000000	 -0.334284	  0.000000	 34.698454	  0.000000
2.968000	  0.000000	  0.000000	  0.000000	  0.718580	  0.000000	 -0.403214	  0.000000	  0.000000	  0.000000	404.890013	1052.797275	-86.439420	  0.551372	  0.000000	 -0.334750	  0.000000	 38.094538	  0.000000
2.968500	  0.000000	  0.000000	  0.000000	  0.720113	  0.000000	 -0.401519	  0.000000	  0.000000	  0.000000	405.688940	1033.382160	-92.111588	  0.547192	  0.000000	 -0.335213	  0.000000	 41.436630	  0.000000
